<svg xmlns="http://www.w3.org/2000/svg" xmlns:xlink="http://www.w3.org/1999/xlink" width="500" zoomAndPan="magnify" viewBox="0 0 375 374.999991" height="500" preserveAspectRatio="xMidYMid meet" version="1.0"><defs><clipPath id="09c33c90a6"><path d="M 101.316406 129.511719 L 115.546875 129.511719 L 115.546875 245.445312 L 101.316406 245.445312 Z M 101.316406 129.511719 " clip-rule="nonzero"/></clipPath><clipPath id="5486782836"><path d="M 101.316406 147.410156 L 101.316406 227.542969 C 101.316406 233.515625 104.527344 239.078125 109.699219 242.0625 L 115.546875 245.4375 L 115.546875 129.511719 L 109.699219 132.890625 C 104.527344 135.875 101.316406 141.441406 101.316406 147.410156 " clip-rule="nonzero"/></clipPath><clipPath id="4243af2a75"><path d="M 0.316406 0.511719 L 14.546875 0.511719 L 14.546875 116.445312 L 0.316406 116.445312 Z M 0.316406 0.511719 " clip-rule="nonzero"/></clipPath><clipPath id="666b2403d8"><path d="M 0.316406 18.410156 L 0.316406 98.542969 C 0.316406 104.515625 3.527344 110.078125 8.699219 113.0625 L 14.546875 116.4375 L 14.546875 0.511719 L 8.699219 3.890625 C 3.527344 6.875 0.316406 12.441406 0.316406 18.410156 " clip-rule="nonzero"/></clipPath><clipPath id="b4a146066f"><rect x="0" width="15" y="0" height="117"/></clipPath><clipPath id="1264ed9cdf"><path d="M 125.078125 115.792969 L 139.3125 115.792969 L 139.3125 259.191406 L 125.078125 259.191406 Z M 125.078125 115.792969 " clip-rule="nonzero"/></clipPath><clipPath id="e9f9a63248"><path d="M 125.078125 140.445312 L 125.078125 250.941406 L 139.3125 259.160156 L 139.3125 115.792969 L 125.078125 124.011719 Z M 125.078125 140.445312 " clip-rule="nonzero"/></clipPath><clipPath id="d282e7c4a0"><path d="M 0.078125 0.792969 L 14.3125 0.792969 L 14.3125 144.191406 L 0.078125 144.191406 Z M 0.078125 0.792969 " clip-rule="nonzero"/></clipPath><clipPath id="4722cc11b0"><path d="M 0.078125 25.445312 L 0.078125 135.941406 L 14.3125 144.160156 L 14.3125 0.792969 L 0.078125 9.011719 Z M 0.078125 25.445312 " clip-rule="nonzero"/></clipPath><clipPath id="fb15bdb052"><rect x="0" width="15" y="0" height="145"/></clipPath><clipPath id="2c09a59510"><path d="M 149.449219 101.722656 L 163.683594 101.722656 L 163.683594 273.253906 L 149.449219 273.253906 Z M 149.449219 101.722656 " clip-rule="nonzero"/></clipPath><clipPath id="88f863e52d"><path d="M 149.449219 126.375 L 149.449219 265.011719 L 163.679688 273.230469 L 163.679688 101.722656 L 149.449219 109.941406 Z M 149.449219 126.375 " clip-rule="nonzero"/></clipPath><clipPath id="77d90906b3"><path d="M 0.449219 0.722656 L 14.683594 0.722656 L 14.683594 172.253906 L 0.449219 172.253906 Z M 0.449219 0.722656 " clip-rule="nonzero"/></clipPath><clipPath id="ec8100b3a7"><path d="M 0.449219 25.375 L 0.449219 164.011719 L 14.679688 172.230469 L 14.679688 0.722656 L 0.449219 8.941406 Z M 0.449219 25.375 " clip-rule="nonzero"/></clipPath><clipPath id="e02d32c962"><rect x="0" width="15" y="0" height="173"/></clipPath><clipPath id="d27e057010"><path d="M 173.816406 90.585938 L 273.96875 90.585938 L 273.96875 284.609375 L 173.816406 284.609375 Z M 173.816406 90.585938 " clip-rule="nonzero"/></clipPath><clipPath id="30a9dadeb2"><path d="M 265.257812 132.890625 L 195.863281 92.824219 C 193.445312 91.429688 190.757812 90.6875 188.050781 90.597656 C 184.960938 90.492188 181.851562 91.234375 179.09375 92.824219 L 173.816406 95.871094 L 173.816406 279.082031 L 179.09375 282.128906 C 181.679688 283.621094 184.578125 284.367188 187.476562 284.367188 C 187.667969 284.367188 187.859375 284.363281 188.050781 284.355469 C 190.753906 284.265625 193.445312 283.523438 195.859375 282.128906 L 265.257812 242.0625 C 270.429688 239.074219 273.640625 233.511719 273.640625 227.542969 L 273.640625 147.414062 C 273.640625 141.441406 270.429688 135.878906 265.257812 132.890625 " clip-rule="nonzero"/></clipPath><clipPath id="4c23018053"><path d="M 0.816406 0.585938 L 100.839844 0.585938 L 100.839844 194.398438 L 0.816406 194.398438 Z M 0.816406 0.585938 " clip-rule="nonzero"/></clipPath><clipPath id="4d1c516ec9"><path d="M 92.257812 42.890625 L 22.863281 2.824219 C 20.445312 1.429688 17.757812 0.6875 15.050781 0.597656 C 11.960938 0.492188 8.851562 1.234375 6.09375 2.824219 L 0.816406 5.871094 L 0.816406 189.082031 L 6.09375 192.128906 C 8.679688 193.621094 11.578125 194.367188 14.476562 194.367188 C 14.667969 194.367188 14.859375 194.363281 15.050781 194.355469 C 17.753906 194.265625 20.445312 193.523438 22.859375 192.128906 L 92.257812 152.0625 C 97.429688 149.074219 100.640625 143.511719 100.640625 137.542969 L 100.640625 57.414062 C 100.640625 51.441406 97.429688 45.878906 92.257812 42.890625 " clip-rule="nonzero"/></clipPath><clipPath id="c64fb6dd44"><rect x="0" width="101" y="0" height="195"/></clipPath></defs><g clip-path="url(#09c33c90a6)"><g clip-path="url(#5486782836)"><g transform="matrix(1, 0, 0, 1, 101, 129)"><g clip-path="url(#b4a146066f)"><g clip-path="url(#4243af2a75)"><g clip-path="url(#666b2403d8)"><path fill="#ffffff" d="M 0.316406 0.511719 L 14.546875 0.511719 L 14.546875 116.445312 L 0.316406 116.445312 Z M 0.316406 0.511719 " fill-opacity="1" fill-rule="nonzero"/></g></g></g></g></g></g><g clip-path="url(#1264ed9cdf)"><g clip-path="url(#e9f9a63248)"><g transform="matrix(1, 0, 0, 1, 125, 115)"><g clip-path="url(#fb15bdb052)"><g clip-path="url(#d282e7c4a0)"><g clip-path="url(#4722cc11b0)"><path fill="#ffffff" d="M 0.078125 0.792969 L 14.3125 0.792969 L 14.3125 144.136719 L 0.078125 144.136719 Z M 0.078125 0.792969 " fill-opacity="1" fill-rule="nonzero"/></g></g></g></g></g></g><g clip-path="url(#2c09a59510)"><g clip-path="url(#88f863e52d)"><g transform="matrix(1, 0, 0, 1, 149, 101)"><g clip-path="url(#e02d32c962)"><g clip-path="url(#77d90906b3)"><g clip-path="url(#ec8100b3a7)"><path fill="#ffffff" d="M 0.449219 0.722656 L 14.683594 0.722656 L 14.683594 172.253906 L 0.449219 172.253906 Z M 0.449219 0.722656 " fill-opacity="1" fill-rule="nonzero"/></g></g></g></g></g></g><g clip-path="url(#d27e057010)"><g clip-path="url(#30a9dadeb2)"><g transform="matrix(1, 0, 0, 1, 173, 90)"><g clip-path="url(#c64fb6dd44)"><g clip-path="url(#4c23018053)"><g clip-path="url(#4d1c516ec9)"><path fill="#ffffff" d="M 0.816406 0.585938 L 100.640625 0.585938 L 100.640625 194.28125 L 0.816406 194.28125 Z M 0.816406 0.585938 " fill-opacity="1" fill-rule="nonzero"/></g></g></g></g></g></g></svg>