<svg xmlns="http://www.w3.org/2000/svg" xmlns:xlink="http://www.w3.org/1999/xlink" width="500" zoomAndPan="magnify" viewBox="0 0 375 374.999991" height="500" preserveAspectRatio="xMidYMid meet" version="1.0"><defs><g/><clipPath id="cc362c71bb"><path d="M 0.957031 19.710938 L 7.78125 19.710938 L 7.78125 75.289062 L 0.957031 75.289062 Z M 0.957031 19.710938 " clip-rule="nonzero"/></clipPath><clipPath id="36b7ae4ce6"><path d="M 0.957031 28.292969 L 0.957031 66.707031 C 0.957031 69.570312 2.496094 72.238281 4.976562 73.667969 L 7.78125 75.289062 L 7.78125 19.710938 L 4.976562 21.332031 C 2.496094 22.761719 0.957031 25.429688 0.957031 28.292969 " clip-rule="nonzero"/></clipPath><clipPath id="f155d67f3d"><path d="M 0.957031 0.710938 L 7.78125 0.710938 L 7.78125 56.289062 L 0.957031 56.289062 Z M 0.957031 0.710938 " clip-rule="nonzero"/></clipPath><clipPath id="21f0360cbe"><path d="M 0.957031 9.292969 L 0.957031 47.707031 C 0.957031 50.570312 2.496094 53.238281 4.976562 54.667969 L 7.78125 56.289062 L 7.78125 0.710938 L 4.976562 2.332031 C 2.496094 3.761719 0.957031 6.429688 0.957031 9.292969 " clip-rule="nonzero"/></clipPath><clipPath id="d9573db357"><rect x="0" width="8" y="0" height="57"/></clipPath><clipPath id="baa4c03d82"><path d="M 12.351562 13.132812 L 19.175781 13.132812 L 19.175781 81.878906 L 12.351562 81.878906 Z M 12.351562 13.132812 " clip-rule="nonzero"/></clipPath><clipPath id="2a7695a8f9"><path d="M 12.351562 24.953125 L 12.351562 77.925781 L 19.175781 81.863281 L 19.175781 13.132812 L 12.351562 17.074219 Z M 12.351562 24.953125 " clip-rule="nonzero"/></clipPath><clipPath id="d35d393a29"><path d="M 0.351562 0.132812 L 7.175781 0.132812 L 7.175781 68.878906 L 0.351562 68.878906 Z M 0.351562 0.132812 " clip-rule="nonzero"/></clipPath><clipPath id="579ae4ba6d"><path d="M 0.351562 11.953125 L 0.351562 64.925781 L 7.175781 68.863281 L 7.175781 0.132812 L 0.351562 4.074219 Z M 0.351562 11.953125 " clip-rule="nonzero"/></clipPath><clipPath id="c7bf580878"><rect x="0" width="8" y="0" height="69"/></clipPath><clipPath id="1f3ca88f4a"><path d="M 24.035156 6.390625 L 30.855469 6.390625 L 30.855469 88.621094 L 24.035156 88.621094 Z M 24.035156 6.390625 " clip-rule="nonzero"/></clipPath><clipPath id="24310b11f0"><path d="M 24.035156 18.207031 L 24.035156 84.671875 L 30.855469 88.609375 L 30.855469 6.390625 L 24.035156 10.328125 Z M 24.035156 18.207031 " clip-rule="nonzero"/></clipPath><clipPath id="10363be17c"><path d="M 0.0351562 0.390625 L 6.855469 0.390625 L 6.855469 82.621094 L 0.0351562 82.621094 Z M 0.0351562 0.390625 " clip-rule="nonzero"/></clipPath><clipPath id="a5003180a5"><path d="M 0.0351562 12.207031 L 0.0351562 78.671875 L 6.855469 82.609375 L 6.855469 0.390625 L 0.0351562 4.328125 Z M 0.0351562 12.207031 " clip-rule="nonzero"/></clipPath><clipPath id="baccb878f1"><rect x="0" width="7" y="0" height="83"/></clipPath><clipPath id="040783b3da"><path d="M 35.714844 1.050781 L 83.730469 1.050781 L 83.730469 94 L 35.714844 94 Z M 35.714844 1.050781 " clip-rule="nonzero"/></clipPath><clipPath id="29ac8231b9"><path d="M 79.550781 21.332031 L 46.285156 2.125 C 45.125 1.453125 43.839844 1.097656 42.539062 1.054688 C 41.058594 1.003906 39.566406 1.359375 38.246094 2.125 L 35.714844 3.582031 L 35.714844 91.414062 L 38.246094 92.875 C 39.484375 93.59375 40.875 93.949219 42.265625 93.949219 C 42.355469 93.949219 42.449219 93.949219 42.539062 93.945312 C 43.835938 93.898438 45.125 93.546875 46.28125 92.875 L 79.550781 73.667969 C 82.03125 72.238281 83.570312 69.570312 83.570312 66.707031 L 83.570312 28.292969 C 83.570312 25.429688 82.03125 22.761719 79.550781 21.332031 " clip-rule="nonzero"/></clipPath><clipPath id="79d9f79d53"><path d="M 0.714844 0.0507812 L 48.730469 0.0507812 L 48.730469 93 L 0.714844 93 Z M 0.714844 0.0507812 " clip-rule="nonzero"/></clipPath><clipPath id="ae4bc9b231"><path d="M 44.550781 20.332031 L 11.285156 1.125 C 10.125 0.453125 8.839844 0.0976562 7.539062 0.0546875 C 6.058594 0.00390625 4.566406 0.359375 3.246094 1.125 L 0.714844 2.582031 L 0.714844 90.414062 L 3.246094 91.875 C 4.484375 92.59375 5.875 92.949219 7.265625 92.949219 C 7.355469 92.949219 7.449219 92.949219 7.539062 92.945312 C 8.835938 92.898438 10.125 92.546875 11.28125 91.875 L 44.550781 72.667969 C 47.03125 71.238281 48.570312 68.570312 48.570312 65.707031 L 48.570312 27.292969 C 48.570312 24.429688 47.03125 21.761719 44.550781 20.332031 " clip-rule="nonzero"/></clipPath><clipPath id="cf267a7424"><rect x="0" width="49" y="0" height="93"/></clipPath><clipPath id="f00c05c75d"><rect x="0" width="84" y="0" height="95"/></clipPath></defs><g fill="#ffffff" fill-opacity="1"><g transform="translate(119.725059, 214.498786)"><g><path d="M 26.40625 -53.90625 C 35.15625 -53.90625 41.832031 -51.644531 46.4375 -47.125 C 51.050781 -42.601562 53.359375 -35.878906 53.359375 -26.953125 C 53.359375 -18.054688 51.050781 -11.335938 46.4375 -6.796875 C 41.832031 -2.265625 35.15625 0 26.40625 0 L 7 0 L 7 -53.90625 Z M 25.78125 -8.953125 C 31.332031 -8.953125 35.484375 -10.375 38.234375 -13.21875 C 40.984375 -16.0625 42.359375 -20.640625 42.359375 -26.953125 C 42.359375 -33.273438 40.984375 -37.851562 38.234375 -40.6875 C 35.484375 -43.53125 31.332031 -44.953125 25.78125 -44.953125 L 17.65625 -44.953125 L 17.65625 -8.953125 Z M 25.78125 -8.953125 "/></g></g></g><g fill="#ffffff" fill-opacity="1"><g transform="translate(177.348404, 214.498786)"><g><path d="M 17.65625 -53.90625 L 17.65625 -8.921875 L 41.890625 -8.921875 L 41.890625 0 L 7 0 L 7 -53.90625 Z M 17.65625 -53.90625 "/></g></g></g><g fill="#ffffff" fill-opacity="1"><g transform="translate(212.850801, 214.498786)"><g><path d="M 29.53125 0 L 18.875 0 L 18.875 -21.171875 L 0.265625 -53.90625 L 11.6875 -53.90625 L 24 -32.703125 L 24.921875 -32.703125 L 36.984375 -53.90625 L 48.15625 -53.90625 L 29.53125 -21.171875 Z M 29.53125 0 "/></g></g></g><g fill="#ffffff" fill-opacity="1"><g transform="translate(261.257361, 214.498786)"><g/></g></g><g fill="#ffffff" fill-opacity="1"><g transform="translate(279.064195, 214.498786)"><g><path d="M 51.734375 0 L 40.515625 0 L 36.46875 -12.421875 L 15.8125 -12.421875 L 11.765625 0 L 0.8125 0 L 19.4375 -53.90625 L 33.109375 -53.90625 Z M 25.625 -42.65625 L 18.6875 -21.390625 L 33.515625 -21.390625 L 26.546875 -42.65625 Z M 25.625 -42.65625 "/></g></g></g><g fill="#ffffff" fill-opacity="1"><g transform="translate(331.599863, 214.498786)"><g><path d="M 17.65625 0 L 7 0 L 7 -53.90625 L 17.65625 -53.90625 Z M 17.65625 0 "/></g></g></g><g transform="matrix(1, 0, 0, 1, 23, 140)"><g clip-path="url(#f00c05c75d)"><g clip-path="url(#cc362c71bb)"><g clip-path="url(#36b7ae4ce6)"><g transform="matrix(1, 0, 0, 1, 0.000000000000003553, 19)"><g clip-path="url(#d9573db357)"><g clip-path="url(#f155d67f3d)"><g clip-path="url(#21f0360cbe)"><path fill="#ffffff" d="M 0.957031 0.710938 L 7.78125 0.710938 L 7.78125 56.289062 L 0.957031 56.289062 Z M 0.957031 0.710938 " fill-opacity="1" fill-rule="nonzero"/></g></g></g></g></g></g><g clip-path="url(#baa4c03d82)"><g clip-path="url(#2a7695a8f9)"><g transform="matrix(1, 0, 0, 1, 12, 13)"><g clip-path="url(#c7bf580878)"><g clip-path="url(#d35d393a29)"><g clip-path="url(#579ae4ba6d)"><path fill="#ffffff" d="M 0.351562 0.132812 L 7.175781 0.132812 L 7.175781 68.851562 L 0.351562 68.851562 Z M 0.351562 0.132812 " fill-opacity="1" fill-rule="nonzero"/></g></g></g></g></g></g><g clip-path="url(#1f3ca88f4a)"><g clip-path="url(#24310b11f0)"><g transform="matrix(1, 0, 0, 1, 24, 6)"><g clip-path="url(#baccb878f1)"><g clip-path="url(#10363be17c)"><g clip-path="url(#a5003180a5)"><path fill="#ffffff" d="M 0.0351562 0.390625 L 6.855469 0.390625 L 6.855469 82.621094 L 0.0351562 82.621094 Z M 0.0351562 0.390625 " fill-opacity="1" fill-rule="nonzero"/></g></g></g></g></g></g><g clip-path="url(#040783b3da)"><g clip-path="url(#29ac8231b9)"><g transform="matrix(1, 0, 0, 1, 35, 1)"><g clip-path="url(#cf267a7424)"><g clip-path="url(#79d9f79d53)"><g clip-path="url(#ae4bc9b231)"><path fill="#ffffff" d="M 0.714844 0.0507812 L 48.570312 0.0507812 L 48.570312 92.90625 L 0.714844 92.90625 Z M 0.714844 0.0507812 " fill-opacity="1" fill-rule="nonzero"/></g></g></g></g></g></g></g></g></svg>